<svg id="Ebene_1" data-name="Ebene 1" xmlns="http://www.w3.org/2000/svg" viewBox="0 0 133.38 105.46"><defs><style>.cls-1{fill:#ec7208;}.cls-2{fill:#1a1a19;}</style></defs><path class="cls-1" d="M24.58,50.94a39.57,39.57,0,0,1,4.52-9.36A51.27,51.27,0,0,1,43.53,26.45,48.39,48.39,0,0,1,72,17.94a49,49,0,0,1,18.24,4.21,50.1,50.1,0,0,1,19.47,15.62,49,49,0,0,1,8.4,16.69c.51,1.8.49,1.8,2.44,1.81a1.48,1.48,0,0,1,1.18.34L114.3,75.22l-.38,0q-3.75-9.33-7.5-18.61c.89-.69,1.87-.06,2.66-.59a7.3,7.3,0,0,0-.92-3A42.1,42.1,0,0,0,88.41,31.58a37.46,37.46,0,0,0-20.77-4.15A39.47,39.47,0,0,0,41.43,40.35,41.67,41.67,0,0,0,34.67,50c-.18.37-.26.93-1,.92C30.73,50.92,27.73,50.94,24.58,50.94Z" transform="translate(-7.94 -17.91)"/><path class="cls-1" d="M20,85.9c2.32-6.52,5.08-12.53,7.49-19a26.86,26.86,0,0,1,2.14,4.7c1.68,4.09,3.26,8.22,4.89,12.33.75,1.88.77,1.87-1.2,2-.23,0-.46.07-.76.12a9,9,0,0,0,1.34,3.82,42.55,42.55,0,0,0,13.51,16.47A38.89,38.89,0,0,0,84,111.64,40.68,40.68,0,0,0,106,92.51c.31-.56.64-1.18,1.5-1.17,2.76,0,5.52,0,8.29.07a2.55,2.55,0,0,1,.57.18,21.24,21.24,0,0,1-2.09,4.69,52.08,52.08,0,0,1-8,11.28A49.29,49.29,0,0,1,84.2,121.4a47.94,47.94,0,0,1-20.81,1.44,45.81,45.81,0,0,1-18.39-7A52,52,0,0,1,23.27,86.82,1.1,1.1,0,0,0,22,85.89C21.5,85.93,21,85.9,20,85.9Z" transform="translate(-7.94 -17.91)"/><path class="cls-2" d="M66.9,71.08c-1.6,3.94-3.13,7.69-4.64,11.45-1.35,3.39-1.34,3.4-4.94,3.4-1.31,0-2.62,0-3.92,0A1.24,1.24,0,0,1,52,85c-3.79-9.47-7.61-18.93-11.45-28.46a9.14,9.14,0,0,1,2.89-.17c2,0,4,0,6,0A1.39,1.39,0,0,1,51,57.45C52.76,62,54.63,66.6,56.49,71.2c.47-.1.48-.46.59-.74,1.74-4.31,3.5-8.6,5.19-12.93a1.57,1.57,0,0,1,1.8-1.18,53.43,53.43,0,0,0,5.66,0,1.83,1.83,0,0,1,2.12,1.41c1.61,4.19,3.32,8.35,5,12.52.12.3.14.67.51.88.45-.2.46-.69.61-1.06,1.72-4.21,3.44-8.42,5.1-12.65a1.42,1.42,0,0,1,1.57-1.09c2.89.06,5.78,0,8.89,0-1,2.57-2,4.93-2.92,7.28-2.8,6.95-5.62,13.9-8.37,20.87A1.84,1.84,0,0,1,80.14,86a42.36,42.36,0,0,0-5.52,0,1.82,1.82,0,0,1-2.09-1.45c-1.49-3.89-3.06-7.73-4.62-11.59A4.53,4.53,0,0,0,66.9,71.08Z" transform="translate(-7.94 -17.91)"/><path class="cls-2" d="M141.12,85.93c-3.1,0-6.06,0-9,0-.84,0-1-.5-1.28-1.11q-2.33-5.86-4.7-11.71a4.82,4.82,0,0,0-1-1.9c-.49.28-.54.79-.71,1.23-1.62,4-3.27,8.06-4.85,12.12a1.79,1.79,0,0,1-2,1.38c-2.52-.1-5-.09-7.56,0a1.58,1.58,0,0,1-1.81-1.18c-1.62-4.15-3.31-8.26-5-12.39a3.27,3.27,0,0,0-.65-1.23A16.65,16.65,0,0,0,101,74.81c-1.38,3.35-2.72,6.71-4.06,10.08-.22.56-.4,1.06-1.17,1-3,0-6,0-9,0-.27-.61.08-1,.25-1.44q5.44-13.53,10.89-27a1.4,1.4,0,0,1,1.58-1.08,27.48,27.48,0,0,0,3.63,0,1.48,1.48,0,0,1,1.68,1.15Q109,68,113.26,78.5c.23.57.3,1.24,1,1.71,1-2.44,2-4.85,3-7.25,2.09-5.16,4.19-10.31,6.22-15.48a1.42,1.42,0,0,1,1.68-1.11c1.4.12,3.05-.5,4.13.21S130.44,59,131,60.31q4.83,11.89,9.63,23.8A4.5,4.5,0,0,1,141.12,85.93Z" transform="translate(-7.94 -17.91)"/><path class="cls-2" d="M47.42,85.93c-3.16,0-6.16,0-9.15,0-.78,0-.94-.51-1.16-1.06L28.87,64.42c-.36-.88-.73-1.75-1.22-3-.76,1.84-1.41,3.37-2,4.91-2.44,6-4.9,12.1-7.29,18.17A1.86,1.86,0,0,1,16.21,86c-2.75-.09-5.5,0-8.2,0a2,2,0,0,1,.3-1.52q5.44-13.52,10.89-27a1.33,1.33,0,0,1,1.48-1c4.65,0,9.29,0,13.94,0a1.24,1.24,0,0,1,1.41.88q5.58,13.95,11.2,27.86A6.09,6.09,0,0,1,47.42,85.93Z" transform="translate(-7.94 -17.91)"/><path class="cls-2" d="M138,56.39a3.27,3.27,0,1,1,0,6.53,3.27,3.27,0,1,1,0-6.53Zm2.42,3.24a2.54,2.54,0,0,0-2.44-2.56,2.59,2.59,0,1,0,2.44,2.56Z" transform="translate(-7.94 -17.91)"/><path class="cls-2" d="M139.27,61.24c-1.06.09-.64-1.33-1.61-1.14-.39.26.12,1-.79,1.19a5.15,5.15,0,0,1-.08-3c.17-.69,1-.31,1.53-.34s1.09.42,1,.83C139,59.66,139.39,60.45,139.27,61.24Zm-.89-2.16a.33.33,0,0,0-.28-.41c-.27-.08-.5,0-.56.26s0,.5.31.51A.5.5,0,0,0,138.38,59.08Z" transform="translate(-7.94 -17.91)"/></svg>